<?xml version="1.0" encoding="UTF-8"?>
<!DOCTYPE svg PUBLIC "-//W3C//DTD SVG 1.1//EN" "http://www.w3.org/Graphics/SVG/1.1/DTD/svg11.dtd">
<svg xmlns="http://www.w3.org/2000/svg" version="1.1" width="295px" height="44px" style="shape-rendering:geometricPrecision; text-rendering:geometricPrecision; image-rendering:optimizeQuality; fill-rule:evenodd; clip-rule:evenodd" xmlns:xlink="http://www.w3.org/1999/xlink">
<g><path style="opacity:0.852" fill="#fefffe" d="M 32.5,2.5 C 41.6482,0.734 46.9815,4.40067 48.5,13.5C 43.1616,17.1805 39.8283,16.0139 38.5,10C 37.2161,9.31621 36.0495,9.48288 35,10.5C 34.5003,18.1594 34.3336,25.8261 34.5,33.5C 38.5,34.1667 40.1667,32.5 39.5,28.5C 48.5712,26.7265 50.7379,29.7265 46,37.5C 41.4053,41.6807 36.2386,42.514 30.5,40C 28.1064,38.0478 26.6064,35.5478 26,32.5C 25.0946,24.0887 25.4279,15.7554 27,7.5C 28.7297,5.59809 30.563,3.93142 32.5,2.5 Z"/></g>
<g><path style="opacity:0.89" fill="#fefffe" d="M 51.5,2.5 C 56.1785,2.33418 60.8452,2.50085 65.5,3C 72.3684,5.89514 74.8684,11.0618 73,18.5C 72.3147,21.0573 70.8147,22.8906 68.5,24C 71.1323,29.5198 72.4657,35.1865 72.5,41C 69.6529,41.9439 67.1529,41.4439 65,39.5C 63.7987,34.7298 62.2987,30.0631 60.5,25.5C 59.671,30.4671 59.171,35.4671 59,40.5C 56.6667,41.8333 54.3333,41.8333 52,40.5C 51.5001,27.8377 51.3334,15.1711 51.5,2.5 Z M 59.5,10.5 C 62.9304,9.75528 64.597,11.0886 64.5,14.5C 64.597,17.9114 62.9304,19.2447 59.5,18.5C 59.5,15.8333 59.5,13.1667 59.5,10.5 Z"/></g>
<g><path style="opacity:0.929" fill="#fefffe" d="M 76.5,2.5 C 79.1667,2.5 81.8333,2.5 84.5,2.5C 84.5,15.1667 84.5,27.8333 84.5,40.5C 81.8333,40.5 79.1667,40.5 76.5,40.5C 76.5,27.8333 76.5,15.1667 76.5,2.5 Z"/></g>
<g><path style="opacity:0.903" fill="#fefffe" d="M 88.5,2.5 C 93.5111,2.33407 98.5111,2.50074 103.5,3C 110.549,7.48685 112.383,13.6535 109,21.5C 105.702,25.1646 101.535,26.4979 96.5,25.5C 96.6659,30.5111 96.4993,35.5111 96,40.5C 93.6667,41.8333 91.3333,41.8333 89,40.5C 88.5001,27.8377 88.3334,15.1711 88.5,2.5 Z M 96.5,10.5 C 102.565,10.7413 103.898,13.408 100.5,18.5C 99.2638,19.2458 97.9305,19.5792 96.5,19.5C 96.5,16.5 96.5,13.5 96.5,10.5 Z"/></g>
<g><path style="opacity:0.837" fill="#fefffe" d="M 112.5,2.5 C 120.167,2.5 127.833,2.5 135.5,2.5C 137.238,8.92714 134.905,11.5938 128.5,10.5C 128.5,20.5 128.5,30.5 128.5,40.5C 125.5,40.5 122.5,40.5 119.5,40.5C 119.5,30.5 119.5,20.5 119.5,10.5C 117.167,10.5 114.833,10.5 112.5,10.5C 112.5,7.83333 112.5,5.16667 112.5,2.5 Z"/></g>
<g><path style="opacity:0.861" fill="#fefffe" d="M 143.5,2.5 C 151.038,0.850429 156.204,3.5171 159,10.5C 159.667,18.1667 159.667,25.8333 159,33.5C 154.807,41.7249 148.641,43.5582 140.5,39C 138.959,37.4207 137.792,35.5873 137,33.5C 136.09,24.7562 136.424,16.0895 138,7.5C 139.73,5.59809 141.563,3.93142 143.5,2.5 Z M 146.5,9.5 C 147.822,9.33003 148.989,9.66337 150,10.5C 150.5,18.1594 150.666,25.8261 150.5,33.5C 148.833,33.5 147.167,33.5 145.5,33.5C 145.199,25.4144 145.533,17.4144 146.5,9.5 Z"/></g>
<g><path style="opacity:0.923" fill="#ff6a00" d="M 162.5,2.5 C 167.511,2.33407 172.511,2.50074 177.5,3C 183.908,6.32279 186.075,11.4895 184,18.5C 182.953,20.7621 181.787,22.9288 180.5,25C 181.773,30.1531 183.44,35.1531 185.5,40C 182.782,41.7677 179.949,41.9344 177,40.5C 175.318,35.4338 173.485,30.4338 171.5,25.5C 170.671,30.4671 170.171,35.4671 170,40.5C 167.667,41.8333 165.333,41.8333 163,40.5C 162.5,27.8377 162.333,15.1711 162.5,2.5 Z M 170.5,10.5 C 176.468,10.6049 177.802,13.1049 174.5,18C 173.207,18.49 171.873,18.6567 170.5,18.5C 170.5,15.8333 170.5,13.1667 170.5,10.5 Z"/></g>
<g><path style="opacity:0.918" fill="#ff6a00" d="M 194.5,2.5 C 197.777,2.21614 200.943,2.54948 204,3.5C 206.951,15.7574 209.451,28.0907 211.5,40.5C 208.753,40.8134 206.086,40.48 203.5,39.5C 202.754,38.2638 202.421,36.9305 202.5,35.5C 200.167,35.5 197.833,35.5 195.5,35.5C 195.5,37.1667 195.5,38.8333 195.5,40.5C 192.5,40.5 189.5,40.5 186.5,40.5C 189.294,27.8611 191.961,15.1945 194.5,2.5 Z M 198.5,18.5 C 200.024,21.2071 201.024,24.2071 201.5,27.5C 200.311,28.4287 198.978,28.762 197.5,28.5C 198.051,25.1933 198.384,21.8599 198.5,18.5 Z"/></g>
<g><path style="opacity:0.895" fill="#ff6900" d="M 214.5,2.5 C 218.007,1.99353 221.174,2.66019 224,4.5C 225.667,9.5 227.333,14.5 229,19.5C 229.333,14.1667 229.667,8.83333 230,3.5C 232.667,2.16667 235.333,2.16667 238,3.5C 238.5,15.8288 238.667,28.1622 238.5,40.5C 235.223,40.7839 232.057,40.4505 229,39.5C 226.803,33.9089 224.803,28.2422 223,22.5C 222.501,28.4908 222.334,34.4908 222.5,40.5C 219.833,40.5 217.167,40.5 214.5,40.5C 214.5,27.8333 214.5,15.1667 214.5,2.5 Z"/></g>
<g><path style="opacity:0.878" fill="#ff6900" d="M 242.5,2.5 C 245.119,2.23166 247.619,2.565 250,3.5C 250.333,7.16667 250.667,10.8333 251,14.5C 252.787,10.4234 254.954,6.59003 257.5,3C 260.227,2.1816 262.894,2.34827 265.5,3.5C 262.833,8.83333 260.167,14.1667 257.5,19.5C 260.464,26.4213 263.131,33.4213 265.5,40.5C 262.5,40.5 259.5,40.5 256.5,40.5C 252.272,23.7303 250.272,23.7303 250.5,40.5C 247.5,40.5 244.5,40.5 241.5,40.5C 241.187,27.7536 241.52,15.087 242.5,2.5 Z"/></g>
</svg>
